<svg aria-hidden="true" style="width:0;height:0;position:absolute;overflow:hidden" xmlns="http://www.w3.org/2000/svg"><defs><symbol id="github" viewBox="0 0 32 32"><path d="M16 3.2C8.931 3.2 3.2 8.931 3.2 16c0 5.998 4.13 11.017 9.698 12.405a1.861 1.861 0 0 1-.098-.622v-2.188h-1.609c-.876 0-1.654-.377-2.032-1.076-.419-.778-.492-1.967-1.531-2.694-.308-.242-.074-.518.282-.481.656.186 1.2.636 1.712 1.303.51.669.75.82 1.702.82.462 0 1.153-.027 1.804-.129.35-.889.955-1.707 1.694-2.093-4.262-.438-6.297-2.559-6.297-5.438 0-1.239.528-2.438 1.425-3.449-.294-1.003-.665-3.047.113-3.826 1.918 0 3.077 1.244 3.356 1.58a9.604 9.604 0 0 1 3.108-.513c1.105 0 2.159.186 3.117.515.275-.334 1.436-1.582 3.358-1.582.781.78.406 2.833.109 3.834.892 1.008 1.417 2.204 1.417 3.441 0 2.877-2.031 4.996-6.287 5.437 1.171.611 2.026 2.329 2.026 3.622v2.916c0 .111-.025.191-.037.286 4.988-1.748 8.571-6.484 8.571-12.069 0-7.069-5.731-12.8-12.8-12.8z"/></symbol><symbol id="telegram" viewBox="0 0 32 32"><path fill="#fff" style="fill:var(--color1,#08c)" d="M16 32c8.837 0 16-7.163 16-16S24.837 0 16 0 0 7.163 0 16s7.163 16 16 16z"/><path fill="#fff" style="fill:var(--color2,#fff)" d="M5.959 16.783c1.87-1.03 3.958-1.89 5.909-2.754 3.356-1.416 6.726-2.807 10.129-4.102.662-.221 1.852-.436 1.969.545-.064 1.389-.327 2.77-.507 4.151-.458 3.037-.986 6.063-1.502 9.09-.178 1.008-1.441 1.53-2.249.885-1.942-1.312-3.899-2.611-5.817-3.953-.628-.638-.046-1.555.515-2.01 1.6-1.576 3.296-2.916 4.812-4.574.409-.988-.799-.155-1.198.1-2.19 1.509-4.326 3.11-6.635 4.437-1.179.649-2.554.094-3.733-.268-1.057-.438-2.606-.878-1.694-1.546z"/></symbol></defs></svg>