<svg aria-hidden="true" style="position: absolute; width: 0; height: 0; overflow: hidden;" version="1.1" xmlns="http://www.w3.org/2000/svg" xmlns:xlink="http://www.w3.org/1999/xlink">
<defs>
<symbol id="github" viewBox="0 0 32 32">
<path d="M16 3.2c-7.069 0-12.8 5.731-12.8 12.8 0 5.998 4.13 11.017 9.698 12.405-0.060-0.173-0.098-0.373-0.098-0.622v-2.188c-0.519 0-1.39 0-1.609 0-0.876 0-1.654-0.377-2.032-1.076-0.419-0.778-0.492-1.967-1.531-2.694-0.308-0.242-0.074-0.518 0.282-0.481 0.656 0.186 1.2 0.636 1.712 1.303 0.51 0.669 0.75 0.82 1.702 0.82 0.462 0 1.153-0.027 1.804-0.129 0.35-0.889 0.955-1.707 1.694-2.093-4.262-0.438-6.297-2.559-6.297-5.438 0-1.239 0.528-2.438 1.425-3.449-0.294-1.003-0.665-3.047 0.113-3.826 1.918 0 3.077 1.244 3.356 1.58 0.956-0.327 2.005-0.513 3.108-0.513 1.105 0 2.159 0.186 3.117 0.515 0.275-0.334 1.436-1.582 3.358-1.582 0.781 0.78 0.406 2.833 0.109 3.834 0.892 1.008 1.417 2.204 1.417 3.441 0 2.877-2.031 4.996-6.287 5.437 1.171 0.611 2.026 2.329 2.026 3.622v2.916c0 0.111-0.025 0.191-0.037 0.286 4.988-1.748 8.571-6.484 8.571-12.069 0-7.069-5.731-12.8-12.8-12.8z"></path>
</symbol>
<symbol id="telegram" viewBox="0 0 32 32">
<path fill="#fff" style="fill: var(--color1, #0088CC)" d="M16 32c8.837 0 16-7.163 16-16s-7.163-16-16-16c-8.837 0-16 7.163-16 16s7.163 16 16 16z"></path>
<path fill="#fff" style="fill: var(--color2, #fff)" d="M5.959 16.783c1.87-1.030 3.958-1.89 5.909-2.754 3.356-1.416 6.726-2.807 10.129-4.102 0.662-0.221 1.852-0.436 1.969 0.545-0.064 1.389-0.327 2.77-0.507 4.151-0.458 3.037-0.986 6.063-1.502 9.090-0.178 1.008-1.441 1.53-2.249 0.885-1.942-1.312-3.899-2.611-5.817-3.953-0.628-0.638-0.046-1.555 0.515-2.010 1.6-1.576 3.296-2.916 4.812-4.574 0.409-0.988-0.799-0.155-1.198 0.1-2.19 1.509-4.326 3.11-6.635 4.437-1.179 0.649-2.554 0.094-3.733-0.268-1.057-0.438-2.606-0.878-1.694-1.546l0-0z"></path>
</symbol>
</defs>
</svg>
